<svg height="60" width="60" xmlns="http://www.w3.org/2000/svg"><path d="M26.707 38.707c-.014.015-.403.441-.598 1.293H35a1 1 0 110 2H25a1 1 0 01-1-1c0-2.15.975-3.361 1.239-3.651l6.971-8.963c.026-.033.054-.064.083-.093C32.307 28.278 34 26.526 34 24c0-2.206-1.794-4-4-4s-4 1.794-4 4a1 1 0 11-2 0c0-3.309 2.691-6 6-6s6 2.691 6 6c0 3.136-1.898 5.29-2.243 5.655l-6.967 8.959a1.224 1.224 0 01-.083.093M30 58C14.561 58 2 45.439 2 30S14.561 2 30 2s28 12.561 28 28-12.561 28-28 28m0-58C13.458 0 0 13.458 0 30s13.458 30 30 30 30-13.458 30-30S46.542 0 30 0" fill="#008fcb" fill-rule="evenodd"/></svg>