<svg height="60" width="60" xmlns="http://www.w3.org/2000/svg"><path d="M36 35c0 3.859-3.14 7-7 7s-7-3.141-7-7c0-1.65.392-3.205 1.132-4.497l7.004-12.007a1 1 0 011.728 1.008l-7 12C24.3 32.487 24 33.698 24 35c0 2.757 2.243 5 5 5s5-2.243 5-5a4.982 4.982 0 00-4.166-4.931.999.999 0 11.332-1.972A6.974 6.974 0 0136 35m-6 23C14.561 58 2 45.439 2 30S14.561 2 30 2s28 12.561 28 28-12.561 28-28 28m0-58C13.458 0 0 13.458 0 30s13.458 30 30 30 30-13.458 30-30S46.542 0 30 0" fill="#008fcb" fill-rule="evenodd"/></svg>